<svg viewBox="-50 -50 834 720" fill="none" xmlns="http://www.w3.org/2000/svg">
<path d="M0 0 C0.67949707 0.15033691 1.35899414 0.30067383 2.05908203 0.45556641 C64.59371735 14.15540455 127.75123908 18.61652527 191.59869385 20.87890625 C195.12625565 21.00449497 198.65370902 21.13284723 202.18115234 21.26171875 C209.68304724 21.53504514 217.18522705 21.79978391 224.6875 22.0625 C225.81929687 22.10279327 226.95109375 22.14308655 228.1171875 22.18460083 C236.03631609 22.46430563 243.9561505 22.71095088 251.87694168 22.93808365 C254.04595722 23.00134029 256.21485406 23.06790848 258.38375854 23.13485718 C298.06702755 24.33878983 337.76968645 24.18772617 377.46682209 24.18511111 C384.21268068 24.18541387 390.95849896 24.19355826 397.7043457 24.20581055 C445.8453221 24.29129328 493.89081832 23.83110644 542 22 C544.17831878 21.91892681 546.35664304 21.83800084 548.53497314 21.75723267 C550.56653556 21.68120321 552.59809115 21.60499079 554.62963867 21.52856445 C555.52190124 21.49504725 556.4141638 21.46153006 557.33346462 21.42699718 C612.88174157 19.29468475 670.47225693 16.17600454 724.84375 3.69921875 C728 3 728 3 730 3 C728.69163902 13.15537334 727.3701255 20.45755142 720 28 C719.06411261 29.01884413 718.1320781 30.04123568 717.203125 31.06640625 C715.30329245 33.16099676 713.38602716 35.23671787 711.453125 37.30078125 C709.02774082 39.85273012 709.02774082 39.85273012 707.37109375 42.33984375 C706.91863281 42.88769531 706.46617187 43.43554688 706 44 C702.8125 44.25 702.8125 44.25 700 44 C699.87625 45.299375 699.7525 46.59875 699.625 47.9375 C699.42387701 49.62587454 699.21531365 51.31337643 699 53 C698.86851562 54.14855469 698.86851562 54.14855469 698.734375 55.3203125 C697.84103209 60.89399542 695.76432291 64.04470678 691.8515625 68.078125 C689.88765713 69.97972816 689.88765713 69.97972816 688.43457031 72.54418945 C685.0407353 75.96763373 681.78466478 75.95845155 677.1953125 76.21484375 C676.28411652 76.28323959 675.37292053 76.35163544 674.43411255 76.42210388 C671.29060556 76.64561569 668.14666567 76.82672292 665 77 C663.8389978 77.06697083 662.67799561 77.13394165 661.48181152 77.20294189 C652.96628804 77.68483777 644.44788355 78.08810415 635.9274292 78.46972656 C633.2078742 78.59265527 630.48855063 78.7203091 627.76922226 78.84813881 C610.18328881 79.67424331 592.59456847 80.38471679 575 81 C575.02537842 81.82927002 575.05075684 82.65854004 575.0769043 83.51293945 C575.09664307 84.59792725 575.11638184 85.68291504 575.13671875 86.80078125 C575.16209717 87.87755127 575.18747559 88.95432129 575.21362305 90.0637207 C575 93 575 93 572.8125 96.1875 C570.02291489 97.98523263 568.21176405 98.46560565 565 99 C565.30852185 100.958964 565.6219418 102.91715713 565.9375 104.875 C566.11152344 105.96554688 566.28554688 107.05609375 566.46484375 108.1796875 C566.85551159 110.93821546 566.85551159 110.93821546 568 113 C579.88 112.01 579.88 112.01 592 111 C593 115 593 115 593 120 C623.36 120 653.72 120 685 120 C686.57954553 126.31818214 688.08506269 132.53910371 689.25 138.9375 C689.46785156 139.87529297 689.68570313 140.81308594 689.91015625 141.77929688 C690.61004959 145.87338841 690.68361564 148.77487977 688.62387085 152.46618652 C683.54176026 157.97374678 679.49489402 159.51662479 672.15244484 159.95162201 C666.70881959 160.07806746 661.27903956 159.99269211 655.8359375 159.87890625 C653.47370842 159.86210255 651.11144779 159.84929971 648.74917603 159.84031677 C642.55715037 159.8060921 636.36705044 159.71780468 630.17578125 159.61798096 C623.84792121 159.5256116 617.51974737 159.48474441 611.19140625 159.43945312 C598.79342865 159.34317571 586.39687499 159.18974077 574 159 C574.12789917 159.93591476 574.25579834 160.87182953 574.38757324 161.83610535 C577.44516467 184.23400382 580.39392359 206.64307293 583.21767044 229.07160568 C583.60373402 232.13585334 583.99103675 235.1999439 584.37833881 238.26403522 C587.27404494 261.17327811 590.15343424 284.0845961 593 307 C593.81154541 307.25692627 594.62309082 307.51385254 595.45922852 307.77856445 C598.49984283 308.74304289 601.53942628 309.71068899 604.57836914 310.68041992 C605.88819237 311.09768734 607.19840702 311.51372832 608.5090332 311.9284668 C621.76563525 316.12512825 621.76563525 316.12512825 628 319 C629.95561633 319.86036906 631.9138595 320.71479835 633.875 321.5625 C634.82117188 321.97628906 635.76734375 322.39007813 636.7421875 322.81640625 C644.59603971 325.66978421 652.39403428 326.38983074 660.6875 326.9375 C668.65734677 327.52527012 676.23852717 328.36593196 684 330.31640625 C686.92680456 330.98332135 689.81707489 331.33068554 692.79541016 331.67602539 C696.99166506 332.29268433 701.0780346 333.40403791 705.1875 334.4375 C713.09689817 336.38026895 720.91032063 337.99441833 729 339 C717.24244806 387.80369326 697.11809211 433.62842463 667 474 C666.59571777 474.54317871 666.19143555 475.08635742 665.77490234 475.64599609 C650.27857257 496.36304735 632.73105846 516.2286003 613 533 C612.06671875 533.81082031 611.1334375 534.62164063 610.171875 535.45703125 C592.77372535 550.49216498 573.94564888 563.57768758 554 575 C553.15888672 575.48339844 552.31777344 575.96679688 551.45117188 576.46484375 C504.86553604 603.01898727 454.17673795 617.57925572 401 623 C399.93168945 623.11021484 399.93168945 623.11021484 398.84179688 623.22265625 C394.23242997 623.67072294 389.62754897 623.88276634 385 624 C383.96294922 624.02723145 382.92589844 624.05446289 381.85742188 624.08251953 C324.83682212 625.3368465 269.73405572 614.68126248 217.63476562 591.18603516 C215.29888199 590.13454121 212.95565563 589.10221149 210.609375 588.07421875 C193.5937122 580.48439637 177.19146705 570.77394834 162 560 C161.33871094 559.53803223 160.67742187 559.07606445 159.99609375 558.60009766 C149.4944371 551.2540314 139.57993011 543.50849056 130 535 C128.62554425 533.81187011 127.25063364 532.62426591 125.875 531.4375 C114.62883836 521.53991449 103.74632891 511.39955235 94 500 C93.15050781 499.03964844 92.30101563 498.07929688 91.42578125 497.08984375 C78.2464745 482.1133588 66.35373105 466.05386537 56 449 C55.53029785 448.22672363 55.0605957 447.45344727 54.57666016 446.65673828 C34.90243881 413.93201575 16.8903553 376.1113729 11 338 C16.53407602 335.15766844 22.10567849 332.63541103 27.875 330.3125 C32.99595288 328.28753191 32.99595288 328.28753191 38 326 C40.49690798 326.03906114 42.94840361 326.14565032 45.4375 326.3125 C46.18451172 326.35882568 46.93152344 326.40515137 47.70117188 326.45288086 C54.25968157 326.88825832 60.78819805 327.55907436 67.31420898 328.33911133 C69.54103718 328.59518811 71.76674595 328.8084437 74 329 C74.69770508 329.07065674 75.39541016 329.14131348 76.11425781 329.21411133 C83.23818679 329.61752038 89.1705032 327.03391469 95.75 324.5625 C107.74166201 320.32085083 118.33027896 318.50888609 131 319 C131.83966309 319.02980957 132.67932617 319.05961914 133.54443359 319.09033203 C138.37459784 319.28331485 143.18072889 319.61850156 148 320 C149.33332981 308.21886724 150.58005991 296.43275302 151.734375 284.6328125 C151.89452054 283.00462811 152.05477659 281.37645459 152.21513367 279.74829102 C152.55333491 276.31273984 152.89091121 272.8771281 153.22799683 269.44146729 C153.75590742 264.06221589 154.28604688 258.68318558 154.81665039 253.30419922 C154.99617245 251.48403954 155.1756921 249.66387963 155.35520935 247.84371948 C155.44418425 246.94159603 155.53315914 246.03947258 155.62483025 245.11001205 C156.73278847 233.87431379 157.83932605 222.63847633 158.94287109 211.40234375 C159.57760755 204.93987451 160.21468315 198.47764124 160.85492134 192.01571465 C161.17749736 188.75904955 161.49841764 185.50223515 161.8170166 182.24517822 C162.1652162 178.68656909 162.51761676 175.1284007 162.87109375 171.5703125 C162.97177658 170.53052246 163.07245941 169.49073242 163.17619324 168.41943359 C163.27072281 167.47680664 163.36525238 166.53417969 163.46264648 165.56298828 C163.54288559 164.74806915 163.62312469 163.93315002 163.70579529 163.09353638 C164 161 164 161 165 158 C164.41892707 158.01252808 163.83785414 158.02505615 163.23917294 158.03796387 C149.0839026 158.34035908 134.92840685 158.5978285 120.77142239 158.8056488 C113.92505546 158.90722874 107.07957047 159.02386037 100.23413086 159.17626953 C93.62739109 159.32332151 87.02085339 159.42797428 80.41288948 159.50683594 C77.89249163 159.54383571 75.37226069 159.59502257 72.8524456 159.66064453 C69.32086565 159.75018704 65.79205552 159.78915558 62.25952148 159.81640625 C60.69829559 159.87357567 60.69829559 159.87357567 59.10552979 159.93190002 C54.93768706 159.92078751 52.14049778 159.89126484 48.78495979 157.26901245 C46.09324217 154.28892231 44.27524794 151.82574382 43 148 C44.32 138.43 45.64 128.86 47 119 C78.68 119 110.36 119 143 119 C143.33 116.36 143.66 113.72 144 111 C152.86943393 110.72283019 161.21990882 111.80947916 170 113 C170.33 108.05 170.66 103.1 171 98 C169.35 97.67 167.7 97.34 166 97 C164.19921875 95.82421875 164.19921875 95.82421875 163 94 C162.70703125 91.08203125 162.70703125 91.08203125 162.8125 87.8125 C162.85310547 86.18248047 162.85310547 86.18248047 162.89453125 84.51953125 C162.92933594 83.68808594 162.96414062 82.85664062 163 82 C162.33846924 82.01047363 161.67693848 82.02094727 160.99536133 82.03173828 C142.35139315 82.27859548 123.75611321 81.81576507 105.125 81.125 C104.01903473 81.08570374 102.91306946 81.04640747 101.77359009 81.00592041 C89.6427727 80.56923299 77.53413433 79.97609171 65.4296875 79.0546875 C64.41359406 78.98049591 63.39750061 78.90630432 62.35061646 78.8298645 C46.19702652 77.52160073 46.19702652 77.52160073 41.85546875 73.375 C40.93382229 72.27632441 40.04502052 71.14942542 39.1875 70 C38.72174561 69.39784668 38.25599121 68.79569336 37.77612305 68.17529297 C32.59007065 60.89846099 31.2315338 52.68970252 30 44 C28.906875 44.020625 27.81375 44.04125 26.6875 44.0625 C23 44 23 44 20 43 C18.65307617 41.54467773 18.65307617 41.54467773 17.29296875 39.68359375 C16.78830078 39.00103516 16.28363281 38.31847656 15.76367188 37.61523438 C15.24353516 36.89658203 14.72339844 36.17792969 14.1875 35.4375 C13.67896484 34.74591797 13.17042969 34.05433594 12.64648438 33.34179688 C11.61433941 31.93813205 10.58686486 30.53102162 9.56396484 29.12060547 C8.51374978 27.69660172 7.44057075 26.28927545 6.34619141 24.89892578 C5.81558105 24.22200684 5.2849707 23.54508789 4.73828125 22.84765625 C4.26044189 22.25090088 3.78260254 21.65414551 3.2902832 21.03930664 C0.24846907 16.2316863 -0.23920141 11.7208691 -0.125 6.125 C-0.10695312 4.97257813 -0.08890625 3.82015625 -0.0703125 2.6328125 C-0.04710937 1.76398437 -0.02390625 0.89515625 0 0 Z M392 83 C392 94.88 392 106.76 392 119 C405.75158378 119.11287162 419.50286092 119.20464205 433.2548027 119.25906086 C439.64009533 119.28517653 446.02505517 119.32061164 452.41015625 119.37719727 C458.56987029 119.43144509 464.72926385 119.46140568 470.8891983 119.47438622 C473.24162086 119.48363897 475.59402549 119.50170711 477.94631195 119.52865028 C481.23640622 119.56484312 484.52516902 119.56994925 487.81542969 119.56762695 C488.79222687 119.58560333 489.76902405 119.60357971 490.77542114 119.62210083 C496.24596527 119.64528749 496.24596527 119.64528749 500.63653564 116.58952332 C502.15529852 114.19281094 502.15529852 114.19281094 502 112 C508.93 112.33 515.86 112.66 523 113 C523.07568426 106.27270776 523.07568426 106.27270776 522 100 C520.72125 99.731875 519.4425 99.46375 518.125 99.1875 C514.50324145 98.42809901 514.19948132 98.29922197 512 95 C511.55296766 92.78415454 511.18536758 90.55158039 510.875 88.3125 C510.70742188 87.13300781 510.53984375 85.95351562 510.3671875 84.73828125 C510.24601562 83.83464844 510.12484375 82.93101563 510 82 C499.78262422 81.97641762 489.56525532 81.95885876 479.34785748 81.94818783 C474.59916382 81.94305618 469.85048929 81.93614525 465.10180664 81.92456055 C440.70751131 81.86659447 416.38298092 82.18100011 392 83 Z M226 83 C225.67 86.63 225.34 90.26 225 94 C221.65094547 97.34905453 219.50621146 97.89470285 215 99 C213.59577396 103.9297199 213.59577396 103.9297199 214 113 C221.59 112.67 229.18 112.34 237 112 C237.66 114.31 238.32 116.62 239 119 C274.97 119 310.94 119 348 119 C348 107.12 348 95.24 348 83 C307.74 83 267.48 83 226 83 Z M211 158 C210.15924622 161.36301511 209.7868439 164.10820987 209.59863281 167.53442383 C209.53458252 168.66343109 209.47053223 169.79243835 209.40454102 170.95565796 C209.33807373 172.19361115 209.27160645 173.43156433 209.203125 174.70703125 C209.08962457 176.72375265 208.97611824 178.74047373 208.86240387 180.75718307 C208.74031583 182.93333652 208.61999047 185.10958138 208.50012207 187.28585815 C208.07245532 195.04269208 207.6304981 202.79871631 207.1875 210.5546875 C207.14112648 211.36830435 207.09475296 212.1819212 207.04697418 213.0201931 C206.28678629 226.3316183 205.47171915 239.63912412 204.625 252.9453125 C204.53889088 254.29897824 204.53889088 254.29897824 204.45104218 255.67999077 C203.88557588 264.55909518 203.31503301 273.43786768 202.7405777 282.31639481 C202.52719074 285.61924624 202.31518194 288.92218534 202.10339355 292.22513962 C201.95714357 294.49619109 201.80870388 296.76709223 201.66015625 299.03799438 C201.57182866 300.41261085 201.48360628 301.78723407 201.39550781 303.16186523 C201.31874817 304.34384995 201.24198853 305.52583466 201.16290283 306.74363708 C201.00821272 309.83583096 200.97025752 312.90459757 201 316 C209.03625745 315.96528614 215.77249179 313.91876135 223.15991211 310.99560547 C229.31248846 308.62480988 229.31248846 308.62480988 233 310 C233.64066406 310.68964844 234.28132813 311.37929688 234.94140625 312.08984375 C236.81137579 314.23213118 236.81137579 314.23213118 239.27734375 314.12890625 C240.59412109 313.84853516 240.59412109 313.84853516 241.9375 313.5625 C243.49597656 313.24152344 243.49597656 313.24152344 245.0859375 312.9140625 C246.391254 312.61208107 247.69586286 312.30703462 249 312 C249.84594727 311.80631836 250.69189453 311.61263672 251.56347656 311.41308594 C262.37482286 309.04785454 262.37482286 309.04785454 273 306 C273.495 309.465 273.495 309.465 274 313 C289.68309192 315.26613484 306.2203515 306.15150477 319 298 C319.64324219 297.59362305 320.28648437 297.18724609 320.94921875 296.76855469 C324.99000123 294.21473327 329.00410478 291.62344489 333 289 C333 291.62113708 332.68707555 293.50935112 332 296 C333.41746304 295.58605062 334.83390193 295.16859503 336.25 294.75 C337.17554688 294.48445312 338.10109375 294.21890625 339.0546875 293.9453125 C341.98941929 293.06585464 341.98941929 293.06585464 344.6328125 291.8046875 C354.76843066 287.44435034 366.00489041 289.00048762 376.17480469 292.81591797 C380.23605337 294.60890569 384.07642538 296.75904836 387.94775391 298.92382812 C390.87702531 300.45990097 393.90956658 301.69608503 396.96337891 302.96118164 C404.52414072 306.10351031 410.53898344 309.37855358 416.640625 314.921875 C423.1951546 320.69506995 428.3669068 321.85937448 436.875 322.75 C437.94492187 322.87503906 439.01484375 323.00007812 440.1171875 323.12890625 C442.74349956 323.43374604 445.37056665 323.72361974 448 324 C447.38125 322.9275 446.7625 321.855 446.125 320.75 C444.6676321 318.20219016 443.27075509 315.64740645 442 313 C449.21690937 314.58772006 455.51768034 316.4745279 462 320 C467.02874029 322.27716542 472.15574913 324.18163544 477.3515625 326.03515625 C479.92382969 326.97225064 482.46372511 327.96992446 485 329 C485.66 327.02 486.32 325.04 487 323 C487.65226562 323.16757812 488.30453125 323.33515625 488.9765625 323.5078125 C494.2934679 324.74685535 497.86590915 325.43193777 503 323 C501.66349743 320.19607216 500.1678969 317.66068855 498.3984375 315.109375 C497.90859375 314.40039062 497.41875 313.69140625 496.9140625 312.9609375 C496.40617187 312.23132813 495.89828125 311.50171875 495.375 310.75 C494.859375 310.00492188 494.34375 309.25984375 493.8125 308.4921875 C492.54395914 306.6598507 491.27306421 304.82919561 490 303 C491.75091019 303.08754551 493.50079551 303.19573373 495.25 303.3125 C496.71179688 303.39951172 496.71179688 303.39951172 498.203125 303.48828125 C501.2768549 304.05065362 502.62770937 305.04233539 505 307 C505.66 307 506.32 307 507 307 C507.103125 307.70125 507.20625 308.4025 507.3125 309.125 C508.28091503 313.1747356 509.42245828 316.84313607 512.875 319.375 C515.55023717 320.16183446 517.22400195 320.47395089 520 320 C522.81331378 317.60416349 522.81331378 317.60416349 525 315 C535.37220038 318.97982561 535.37220038 318.97982561 538 323.25 C538.33 324.1575 538.66 325.065 539 326 C539.99 326.33 540.98 326.66 542 327 C542.20548163 317.61425687 541.56223023 308.37219212 540.71484375 299.03515625 C540.57424244 297.44318867 540.43408354 295.85118196 540.29432678 294.25914001 C539.9219466 290.03209386 539.54315974 285.80564502 539.16308594 281.57928467 C538.80577875 277.59293131 538.45502467 273.60600954 538.10351562 269.61914062 C534.80364435 232.4067461 531.38225599 195.20481591 528 158 C423.39 158 318.78 158 211 158 Z " fill="#E49F1A" transform="translate(0,0)"/>
<path d="M0 0 C2 1 2 1 2 1 Z " fill="#8B7172" transform="translate(339,207)"/>
<path d="" fill="#969494" transform="translate(0,0)"/>
<path d="" fill="#814F51" transform="translate(0,0)"/>
</svg>
